<?xml version="1.0" encoding="UTF-8" standalone="no"?>
<!-- Created with Inkscape (http://www.inkscape.org/) -->

<svg
   xmlns:dc="http://purl.org/dc/elements/1.1/"
   xmlns:cc="http://creativecommons.org/ns#"
   xmlns:rdf="http://www.w3.org/1999/02/22-rdf-syntax-ns#"
   xmlns:svg="http://www.w3.org/2000/svg"
   xmlns="http://www.w3.org/2000/svg"
   xmlns:xlink="http://www.w3.org/1999/xlink"
   xmlns:sodipodi="http://sodipodi.sourceforge.net/DTD/sodipodi-0.dtd"
   xmlns:inkscape="http://www.inkscape.org/namespaces/inkscape"
   width="48"
   height="48"
   viewBox="0 0 12.7 12.7"
   version="1.1"
   id="svg8"
   inkscape:version="0.92.3 (2405546, 2018-03-11)"
   sodipodi:docname="thumbnail.svg">
  <defs
     id="defs2">
    <linearGradient
       inkscape:collect="always"
       id="linearGradient1248">
      <stop
         style="stop-color:#2a88bd;stop-opacity:1;"
         offset="0"
         id="stop1244" />
      <stop
         id="stop1252"
         offset="0.43559828"
         style="stop-color:#1e6289;stop-opacity:1;" />
      <stop
         style="stop-color:#0f3246;stop-opacity:1"
         offset="1"
         id="stop1246" />
    </linearGradient>
    <linearGradient
       id="linearGradient1240"
       inkscape:collect="always">
      <stop
         id="stop1236"
         offset="0"
         style="stop-color:#191920;stop-opacity:1" />
      <stop
         style="stop-color:#141419;stop-opacity:1"
         offset="0.6269775"
         id="stop1242" />
      <stop
         id="stop1238"
         offset="1"
         style="stop-color:#08080c;stop-opacity:1" />
    </linearGradient>
    <radialGradient
       inkscape:collect="always"
       xlink:href="#linearGradient1240"
       id="radialGradient1234"
       cx="6.7090769"
       cy="290.99963"
       fx="6.7090769"
       fy="290.99963"
       r="8.1737347"
       gradientTransform="matrix(1.0063327,1.2102508e-6,-1.2099592e-6,1.0060902,-0.2038962,-1.9530021)"
       gradientUnits="userSpaceOnUse" />
    <radialGradient
       inkscape:collect="always"
       xlink:href="#linearGradient1248"
       id="radialGradient1250"
       cx="162.42467"
       cy="162.42349"
       fx="162.42467"
       fy="162.42349"
       r="134.57943"
       gradientTransform="matrix(1.6222419,5.3205232e-8,-5.5747932e-8,1.6997695,-101.06743,-113.65902)"
       gradientUnits="userSpaceOnUse" />
    <filter
       style="color-interpolation-filters:sRGB"
       id="filter1254"
       inkscape:label="filter0" />
    <filter
       style="color-interpolation-filters:sRGB;"
       inkscape:label="Drop Shadow"
       id="filter1426">
      <feFlood
         flood-opacity="0.498039"
         flood-color="rgb(0,0,0)"
         result="flood"
         id="feFlood1416" />
      <feComposite
         in="flood"
         in2="SourceGraphic"
         operator="out"
         result="composite1"
         id="feComposite1418" />
      <feGaussianBlur
         in="composite1"
         stdDeviation="2"
         result="blur"
         id="feGaussianBlur1420" />
      <feOffset
         dx="2"
         dy="2"
         result="offset"
         id="feOffset1422" />
      <feComposite
         in="offset"
         in2="SourceGraphic"
         operator="atop"
         result="composite2"
         id="feComposite1424" />
    </filter>
    <radialGradient
       inkscape:collect="always"
       xlink:href="#linearGradient1248"
       id="radialGradient98"
       gradientUnits="userSpaceOnUse"
       gradientTransform="matrix(1.6222419,5.3205232e-8,-5.5747932e-8,1.6997695,-101.06743,-113.65902)"
       cx="162.42467"
       cy="162.42349"
       fx="162.42467"
       fy="162.42349"
       r="134.57943" />
    <radialGradient
       inkscape:collect="always"
       xlink:href="#linearGradient1248"
       id="radialGradient100"
       gradientUnits="userSpaceOnUse"
       gradientTransform="matrix(1.6222419,5.3205232e-8,-5.5747932e-8,1.6997695,-101.06743,-113.65902)"
       cx="162.42467"
       cy="162.42349"
       fx="162.42467"
       fy="162.42349"
       r="134.57943" />
  </defs>
  <sodipodi:namedview
     id="base"
     pagecolor="#ffffff"
     bordercolor="#666666"
     borderopacity="1.0"
     inkscape:pageopacity="0.0"
     inkscape:pageshadow="2"
     inkscape:zoom="7.9195959"
     inkscape:cx="10.235516"
     inkscape:cy="11.573283"
     inkscape:document-units="mm"
     inkscape:current-layer="layer1"
     showgrid="false"
     units="px"
     inkscape:window-width="1920"
     inkscape:window-height="1025"
     inkscape:window-x="0"
     inkscape:window-y="27"
     inkscape:window-maximized="1" />
  <metadata
     id="metadata5">
    <rdf:RDF>
      <cc:Work
         rdf:about="">
        <dc:format>image/svg+xml</dc:format>
        <dc:type
           rdf:resource="http://purl.org/dc/dcmitype/StillImage" />
        <dc:title />
      </cc:Work>
    </rdf:RDF>
  </metadata>
  <g
     inkscape:label="Layer 1"
     inkscape:groupmode="layer"
     id="layer1"
     transform="translate(0,-284.3)">
    <rect
       style="fill:url(#radialGradient1234);fill-opacity:1;stroke-width:0.22107799"
       id="rect3855"
       width="13.659461"
       height="13.264681"
       x="-0.28241557"
       y="284.18652" />
    <g
       id="g3795"
       transform="matrix(0.03253725,0,0,0.03253725,1.004487,285.39838)"
       style="fill:url(#radialGradient1250);fill-opacity:1;stroke:none;stroke-opacity:1;filter:url(#filter1426)">
      <path
         d="m 110.559,192.031 c 4.418,-6.66 6.594,-13.888 6.433,-21.013 V 29.208 c 6.276,6.907 14.106,14.107 22.23,18.042 14.467,7.008 15.272,17.869 14.833,29.322 -0.023,0.606 -0.045,1.179 -0.061,1.715 -0.118,4.14 3.143,7.593 7.283,7.711 0.073,0.002 0.145,0.003 0.218,0.003 4.043,0 7.377,-3.219 7.493,-7.286 0.014,-0.49 0.034,-1.014 0.055,-1.569 C 169.404,67.711 170.25,45.615 145.76,33.751 133.611,27.866 119.99,9.843 115.767,3.395 115.759,3.383 115.75,3.373 115.742,3.36 115.653,3.225 115.554,3.097 115.457,2.968 115.402,2.896 115.351,2.82 115.293,2.749 c -0.071,-0.087 -0.15,-0.167 -0.225,-0.251 -0.534,-0.597 -1.147,-1.093 -1.816,-1.48 -0.065,-0.038 -0.126,-0.081 -0.192,-0.116 -0.056,-0.03 -0.114,-0.053 -0.17,-0.082 -0.697,-0.355 -1.457,-0.602 -2.26,-0.725 -0.112,-0.018 -0.224,-0.04 -0.338,-0.052 -0.09,-0.01 -0.182,-0.011 -0.273,-0.018 -0.161,-0.011 -0.322,-0.023 -0.484,-0.024 -0.014,0 -0.028,-0.002 -0.043,-0.002 -0.069,0 -0.136,0.009 -0.205,0.01 -0.167,0.004 -0.334,0.01 -0.5,0.025 -0.097,0.009 -0.191,0.025 -0.286,0.038 -0.147,0.02 -0.295,0.039 -0.442,0.067 -0.11,0.022 -0.217,0.049 -0.326,0.075 -0.128,0.031 -0.255,0.061 -0.381,0.099 -0.124,0.037 -0.245,0.081 -0.366,0.124 -0.107,0.038 -0.215,0.074 -0.321,0.117 -0.138,0.056 -0.271,0.12 -0.404,0.184 -0.087,0.042 -0.175,0.08 -0.261,0.125 -0.148,0.078 -0.29,0.165 -0.432,0.252 -0.059,0.037 -0.119,0.066 -0.177,0.104 -0.012,0.008 -0.023,0.018 -0.036,0.026 -0.135,0.09 -0.264,0.188 -0.393,0.286 -0.072,0.055 -0.148,0.106 -0.218,0.163 -0.089,0.073 -0.173,0.154 -0.259,0.232 -0.604,0.541 -1.104,1.163 -1.492,1.841 -0.031,0.054 -0.067,0.106 -0.097,0.161 -0.03,0.055 -0.053,0.113 -0.082,0.169 -0.354,0.693 -0.6,1.448 -0.723,2.245 -0.019,0.119 -0.042,0.236 -0.054,0.355 -0.009,0.087 -0.011,0.176 -0.017,0.264 -0.012,0.164 -0.023,0.329 -0.025,0.494 0,0.014 -0.002,0.028 -0.002,0.042 v 136.754 c -6.757,-4.537 -15.341,-7.109 -24.838,-7.109 -5.436,0 -10.895,0.864 -16.226,2.567 -23.742,7.588 -37.905,29.879 -31.574,49.69 4.802,15.028 19.84,24.739 38.312,24.739 5.436,0 10.895,-0.864 16.226,-2.567 11.211,-3.579 20.682,-10.52 26.666,-19.54 z M 98.06,183.738 c -4.106,6.189 -10.759,11 -18.733,13.548 -3.853,1.231 -7.776,1.855 -11.661,1.855 -11.817,0 -21.247,-5.615 -24.024,-14.305 -3.814,-11.934 5.989,-25.767 21.852,-30.836 3.853,-1.231 7.776,-1.855 11.66,-1.855 11.818,0 21.248,5.615 24.025,14.306 1.751,5.478 0.643,11.617 -3.119,17.287 z"
         id="path3791"
         inkscape:connector-curvature="0"
         style="fill:url(#radialGradient98);fill-opacity:1;stroke:none;stroke-opacity:1" />
      <path
         d="M 296.909,233.271 V 100.403 c 0,-0.013 0,-0.026 0,-0.04 V 72.21 c 0,-0.013 -0.002,-0.025 -0.002,-0.038 -10e-4,-0.187 -0.013,-0.374 -0.028,-0.561 -0.005,-0.065 -0.006,-0.132 -0.013,-0.197 -0.017,-0.152 -0.044,-0.303 -0.069,-0.454 -0.017,-0.1 -0.029,-0.201 -0.05,-0.3 -0.021,-0.096 -0.05,-0.192 -0.074,-0.287 -0.038,-0.151 -0.075,-0.303 -0.122,-0.451 -0.019,-0.059 -0.044,-0.118 -0.064,-0.177 -0.063,-0.18 -0.128,-0.358 -0.204,-0.532 -0.005,-0.012 -0.008,-0.023 -0.013,-0.035 -0.024,-0.054 -0.053,-0.103 -0.078,-0.155 -0.075,-0.16 -0.151,-0.317 -0.237,-0.47 -0.051,-0.092 -0.108,-0.179 -0.163,-0.267 -0.071,-0.115 -0.141,-0.231 -0.218,-0.342 -0.075,-0.109 -0.156,-0.213 -0.237,-0.317 -0.065,-0.084 -0.129,-0.17 -0.197,-0.25 -0.094,-0.112 -0.193,-0.217 -0.293,-0.322 -0.066,-0.069 -0.13,-0.14 -0.198,-0.206 -0.104,-0.101 -0.211,-0.196 -0.319,-0.29 -0.076,-0.066 -0.151,-0.133 -0.229,-0.195 -0.103,-0.083 -0.21,-0.16 -0.317,-0.237 -0.093,-0.067 -0.186,-0.134 -0.282,-0.197 -0.097,-0.063 -0.196,-0.121 -0.296,-0.18 -0.113,-0.066 -0.226,-0.132 -0.343,-0.193 -0.09,-0.046 -0.182,-0.088 -0.273,-0.131 -0.129,-0.06 -0.258,-0.12 -0.391,-0.173 -0.091,-0.037 -0.183,-0.068 -0.275,-0.101 -0.134,-0.047 -0.268,-0.095 -0.405,-0.135 -0.106,-0.031 -0.213,-0.056 -0.32,-0.082 -0.124,-0.03 -0.247,-0.062 -0.374,-0.086 -0.138,-0.026 -0.277,-0.045 -0.417,-0.064 -0.098,-0.013 -0.195,-0.029 -0.294,-0.039 -0.183,-0.017 -0.366,-0.023 -0.55,-0.027 -0.052,-10e-4 -0.102,-0.008 -0.153,-0.008 -0.011,0 -0.021,0.001 -0.033,0.002 -0.198,0.001 -0.397,0.013 -0.596,0.03 -0.054,0.004 -0.109,0.005 -0.163,0.011 -0.164,0.017 -0.327,0.046 -0.49,0.075 -0.088,0.015 -0.177,0.026 -0.264,0.044 -0.106,0.022 -0.211,0.054 -0.317,0.081 -0.142,0.037 -0.285,0.07 -0.423,0.115 -0.064,0.021 -0.128,0.048 -0.192,0.07 -0.176,0.062 -0.35,0.125 -0.52,0.199 -0.011,0.005 -0.023,0.008 -0.035,0.013 l -106.874,47.234 c -0.013,0.005 -0.026,0.012 -0.04,0.017 l -0.086,0.038 c -0.054,0.024 -0.103,0.054 -0.156,0.079 -0.159,0.075 -0.317,0.151 -0.47,0.236 -0.092,0.052 -0.18,0.108 -0.269,0.163 -0.114,0.071 -0.229,0.14 -0.34,0.216 -0.11,0.077 -0.215,0.158 -0.32,0.24 -0.083,0.064 -0.166,0.127 -0.247,0.194 -0.113,0.095 -0.219,0.195 -0.325,0.295 -0.068,0.065 -0.138,0.129 -0.204,0.196 -0.101,0.104 -0.197,0.212 -0.291,0.32 -0.066,0.076 -0.132,0.15 -0.195,0.229 -0.082,0.104 -0.16,0.209 -0.236,0.316 -0.067,0.093 -0.134,0.187 -0.197,0.283 -0.063,0.096 -0.12,0.194 -0.178,0.292 -0.067,0.115 -0.134,0.229 -0.195,0.348 -0.046,0.088 -0.087,0.177 -0.128,0.267 -0.062,0.132 -0.122,0.263 -0.177,0.399 -0.035,0.087 -0.065,0.175 -0.096,0.263 -0.05,0.139 -0.098,0.276 -0.14,0.419 -0.029,0.1 -0.053,0.202 -0.078,0.303 -0.032,0.13 -0.065,0.26 -0.09,0.392 -0.025,0.13 -0.042,0.261 -0.06,0.392 -0.015,0.107 -0.032,0.212 -0.042,0.32 -0.016,0.171 -0.022,0.344 -0.026,0.517 -0.001,0.061 -0.009,0.12 -0.009,0.181 v 0.097 c 0,0.013 0,0.026 0,0.039 v 28.252 c 0,0.013 0,0.026 0,0.039 v 106.977 c -6.744,-4.501 -15.297,-7.052 -24.754,-7.052 -5.436,0 -10.895,0.864 -16.226,2.567 -11.212,3.583 -20.682,10.523 -26.666,19.544 -6.329,9.539 -8.072,20.246 -4.908,30.146 4.802,15.028 19.84,24.739 38.312,24.739 5.436,0 10.895,-0.864 16.226,-2.567 11.211,-3.583 20.682,-10.523 26.666,-19.543 4.78,-7.205 6.939,-15.074 6.35,-22.76 V 152.676 l 92,-40.661 v 96.183 c -6.745,-4.501 -15.297,-7.053 -24.755,-7.053 -5.436,0 -10.895,0.864 -16.226,2.567 -23.742,7.588 -37.905,29.879 -31.574,49.69 4.802,15.028 19.84,24.739 38.312,24.739 5.436,0 10.895,-0.864 16.226,-2.567 11.211,-3.583 20.682,-10.523 26.667,-19.544 4.78,-7.203 6.94,-15.073 6.35,-22.759 z m -144.581,74.723 c -3.853,1.231 -7.776,1.855 -11.661,1.855 -11.817,0 -21.247,-5.615 -24.024,-14.305 -1.75,-5.478 -0.643,-11.618 3.119,-17.288 4.106,-6.188 10.759,-11 18.733,-13.548 3.853,-1.231 7.776,-1.855 11.66,-1.855 11.817,0 21.247,5.615 24.024,14.306 0.38,1.189 0.617,2.412 0.73,3.652 v 2.835 c 0,0.082 0.01,0.161 0.012,0.243 -0.288,3.524 -1.585,7.126 -3.861,10.557 -4.106,6.188 -10.758,10.999 -18.732,13.548 z m 37.581,-171.718 v -11.892 l 92,-40.66 v 11.891 z m 69.419,125.011 c -3.853,1.231 -7.776,1.855 -11.661,1.855 -11.817,0 -21.247,-5.615 -24.024,-14.305 -3.814,-11.934 5.989,-25.767 21.852,-30.836 3.853,-1.231 7.776,-1.855 11.66,-1.855 11.818,0 21.248,5.615 24.025,14.306 0.38,1.189 0.617,2.412 0.73,3.652 v 1.542 c 0,0.295 0.021,0.586 0.055,0.872 -0.169,3.733 -1.484,7.574 -3.903,11.221 -4.108,6.188 -10.76,10.999 -18.734,13.548 z"
         id="path3793"
         inkscape:connector-curvature="0"
         style="fill:url(#radialGradient100);fill-opacity:1;stroke:none;stroke-width:57.6115799;stroke-miterlimit:4;stroke-dasharray:none;stroke-opacity:1" />
    </g>
  </g>
</svg>
